<svg id="Layer_1" data-name="Layer 1" xmlns="http://www.w3.org/2000/svg" viewBox="0 0 117.17 106.9"><defs><style>.cls-1,.cls-3{fill:#fff;}.cls-1,.cls-6{stroke:#fff;stroke-miterlimit:10;}.cls-2,.cls-6{fill:none;}.cls-3,.cls-6{isolation:isolate;font-size:12px;font-family:Athelas-Bold, Athelas;font-weight:700;}.cls-4{letter-spacing:-0.06em;}.cls-5{letter-spacing:0em;}</style></defs><circle class="cls-1" cx="95.87" cy="14.67" r="7.38"/><path class="cls-1" d="M63.2,9.12l-2.62-1.8-2.09-.5-2.16,1L54.52,9.36l-.46,1,.14.46-.53.21-.18.53v1.24l.39.35.11.81v1.48l-.32.35L52,15.58l-.81-.6-.85-.21-1,.18-.65.28-1,.14-1.53.14-1.81.25-2.94.81-2.69,1.1-2.2.67L34.28,19H33l-.28.21-.21,1,.32.28-2.73.71-2,.89L25.5,23.37l-2.09,1.17-1.35.67-1.66.89-.92.64-1,.46h-.92l-.71.57-.89.5-.63.92v.73l.18.85.18.81-.07.71.35.47v.64l.43.21,1.13-.67,1.06-.67.78-.67.64-.43.25-.78.43-.67,1-1.17,1.24-.85,1.63-.46,1.95-.64,2.87-1.13L32,24.73l1.7-.46a6.8,6.8,0,0,1,1.17.46l1.2-.14.28-.71.85-.28h1.17l1.17-.07,1.38,0,1,.34.28,1-.14,1.45L42,28.23l-.43,2-.28,1.31-1.17.53-.57,1-.27.89-.76.57-.35.85.64,1,.48.73.34.92-.67,1.53-.59,1.28,0,2.3.07,1.56v1.45l.11,1.42.32.78.32,1,.16,1.49,1,.85L41,53l.43.92.4.66L42.5,54l.6,1.6L44,57.07l.81,1.59L45.37,60l.84,1.28,1.06,1.42.85,1.1L48.51,65l.5.71.22.53-.25.43-.72.32-.89-.21-1.59,0-1-.15L43.15,67l-.92.17-1.38.6-1.13.46-.92.4-1.17.25-1.88.32H32l-.78-.43-.74-.71-1.06,0-1.09.25-1.35.5-.39,1.28-.18,1-.22.92-.14,1v.64l-.28,1-.32,1-.18.64-.39.35-.21,1-.11,1.35,0,1.35,0,1.38.21.78.25.6.64.18.71-.28.6-1.13.85-1.1,1.1-1.1.89-1.38.85-1.24.21-.46.57-.11.14-1.2,1.81-.35,2.69-.11h2.66l3.33-.32,5.77-.21,3.68-.74L53.93,73l1.59-1,1.1-1.49L57.15,69l.25-1.74L57,65.52l-.71-3.47-.43-2.83-.18-1.63.63-1.31L57.17,55l-1.42-1.32-1.32-2.46-.76-1.61v-1.7l1.13-.76L56.5,47l-.28-1.42-.09-.66,1.7-.94L60,42.87l2.65-1,2-.94,1.51-.57,1.79-.09,1.61.66,2,.46,1.89.38,2.46.19,1.7-.28,2.27-.38,2.74.28,1.89.19,1.13.47.47,1.23.68,1.18.8.76,1.25.52,1.11-.07s1-.89,1-.82.92-.88.92-.88l.66-.5L93.76,43l1-.28,1.82-.09,1.7-.24,1.35-.73.85-.76,1-.94.26-1.06-.83-.54-1.2,0-1.16,0-3.9-.07-1.28-.38-1-.31-1.32-.05-1.42.07-1,.05-1.06,0-2.1-.5-1.56-.43-2.83-.85L78.81,35l-2.13-.28-2-.5-1.52-.28-1.59-.18h-2L68,33.49l-.64-.43H66.21l-.64.21-.78.5-.67.28L62.74,34l-2-.07-2.37-.11h-1l-.25-.71.32-1,2-3.4,1.1-1.06,1.06-.35,1.95.53,1.28.46,1,.25,1.89.59L69.36,29h.85l.94.94H73l1.79-.57.76-1.61-1-1.7-2.46-1.51-2.17-.28-2.17-1.51L65.29,22l-2.08-1.23-.85-1-.09-1.23.43-.5.31-.87.07-.85.19-1V14.1l0-4.56Z" transform="translate(-1.42 -6.29)"/><rect class="cls-2" y="84.44" width="117.17" height="22.46"/><text class="cls-3" transform="translate(4.72 92.84)">The <tspan class="cls-4" x="23.3" y="0">F</tspan><tspan x="29.46" y="0">ootball </tspan><tspan class="cls-5" x="68.85" y="0">G</tspan><tspan x="77.24" y="0">allery</tspan></text><text class="cls-6" transform="translate(4.72 92.84)">The <tspan class="cls-4" x="23.3" y="0">F</tspan><tspan x="29.46" y="0">ootball </tspan><tspan class="cls-5" x="68.85" y="0">G</tspan><tspan x="77.24" y="0">allery</tspan></text></svg>